#!OML:ASF E:\acrobat2\Project_11_07_03\Capture day 1\Session 1\Acrobat.ASF
:FULLY-SPECIFIED
:DEGREES
846
root 17.4562 6.49407 -8.20217 -338.462 -9.18357 6.08088
lowerback 36.3603 0.06322 -0.940427
upperback 16.0021 -0.53673 -3.89167
thorax -0.634812 -0.118881 -3.40884
lowerneck 4.22015 3.75955 2.60037
upperneck -34.9994 4.12671 -6.75196
head -11.9221 2.47086 -3.50178
rclavicle 5.56597e-015 -5.86415e-015
rhumerus 24.2889 -1.21032 -94.7649
rradius 55.1255
rwrist 25.9706
rhand -42.8721 -66.8831
rfingers 7.12502
rthumb -15.7352 -623.737
lclavicle 5.56597e-015 -5.86415e-015
lhumerus 46.8446 -17.0613 69.9502
lradius 50.0459
lwrist -17.4594
lhand -33.216 -30.7145
lfingers 7.12502
lthumb -6.42275 -0.831871
rfemur -137.347 -29.6146 46.6601
rtibia 11.8454
rfoot -218.593 11.894
rtoes -14.9328
lfemur -153.512 25.6653 -49.2119
ltibia 44.6456
lfoot -543.236 10.621
ltoes 30.3506
847
root 17.478 6.48343 -8.19238 -338.303 -9.12609 6.33269
lowerback 36.4387 -0.234941 -0.886445
upperback 16.0538 -0.882923 -4.02683
thorax -0.627557 -0.274538 -3.46932
lowerneck 4.23922 3.91923 2.51506
upperneck -34.975 4.36272 -6.73984
head -11.9047 2.59137 -3.50551
rclavicle 2.38542e-015 2.25124e-014
rhumerus 24.3708 -1.09628 -95.4195
rradius 55.7395
rwrist 26.342
rhand -42.9555 -66.418
rfingers 7.12502
rthumb -15.8155 -624.208
lclavicle 2.38542e-015 2.25124e-014
lhumerus 46.5419 -16.5043 70.0927
lradius 51.349
lwrist -15.5185
lhand -32.0497 -30.5735
lfingers 7.12502
lthumb -5.29673 -0.659676
rfemur -137.156 -29.3419 46.5356
rtibia 11.8388
rfoot -219.546 13.2063
rtoes -17.5035
lfemur -153.43 25.1683 -49.0275
ltibia 44.5316
lfoot -543.561 10.4219
ltoes 29.6032
848
root 17.5 6.49633 -8.18603 -338.119 -9.04304 6.67633
lowerback 36.5273 -0.498069 -0.858746
upperback 16.1 -1.1918 -4.13179
thorax -0.627235 -0.413981 -3.49566
lowerneck 4.28103 4.02298 2.39678
upperneck -34.9349 4.50967 -6.72351
head -11.8925 2.6745 -3.49306
rclavicle 2.10712e-014 -1.63997e-015
rhumerus 24.5451 -1.15943 -96.028
rradius 56.2014
rwrist 26.8308
rhand -43.0324 -65.9028
rfingers 7.12502
rthumb -15.8895 -624.729
lclavicle 2.10712e-014 -1.63997e-015
lhumerus 46.5016 -16.0807 70.1605
lradius 52.0953
lwrist -13.6341
lhand -31.4888 -31.0372
lfingers 7.12502
lthumb -4.75512 -1.1106
rfemur -137.02 -29.0972 46.3653
rtibia 11.9835
rfoot -220.3 14.604
rtoes -19.7992
lfemur -153.135 24.6405 -48.8744
ltibia 44.5526
lfoot -543.877 10.3093
ltoes 29.0205
849
root 17.5214 6.53102 -8.18303 -337.927 -8.94065 7.10039
lowerback 36.6034 -0.732397 -0.825887
upperback 16.1649 -1.46161 -4.23155
thorax -0.600965 -0.533144 -3.53174
lowerneck 4.34032 4.07506 2.27616
upperneck -34.8988 4.5794 -6.70381
head -11.8905 2.72185 -3.47222
rclavicle 3.97569e-015 7.65321e-015
rhumerus 24.8489 -1.40207 -96.6021
rradius 56.3945
rwrist 27.3464
rhand -43.1455 -65.3859
rfingers 7.12502
rthumb -15.9985 -625.255
lclavicle 3.97569e-015 7.65321e-015
lhumerus 46.7188 -15.81 70.1543
lradius 52.3232
lwrist -12.4438
lhand -31.5243 -31.5458
lfingers 7.12502
lthumb -4.78944 -1.61994
rfemur -136.936 -28.9161 46.1169
rtibia 12.2385
rfoot -220.871 15.8487
rtoes -21.3525
lfemur -152.629 24.1053 -48.7552
ltibia 44.6981
lfoot -544.175 10.2978
ltoes 28.6818
850
root 17.541 6.58383 -8.18327 -337.708 -8.8464 7.57398
lowerback 36.6335 -0.905422 -0.807022
upperback 16.2383 -1.65871 -4.3098
thorax -0.545587 -0.618242 -3.56157
lowerneck 4.40488 4.08194 2.19247
upperneck -34.8524 4.57845 -6.71181
head -11.8873 2.73524 -3.46087
rclavicle 9.93923e-016 2.11706e-014
rhumerus 25.2664 -1.81956 -97.1075
rradius 56.2762
rwrist 27.7896
rhand -43.3256 -64.91
rfingers 7.12502
rthumb -16.1719 -625.745
lclavicle 9.93923e-016 2.11706e-014
lhumerus 47.1372 -15.7249 70.1207
lradius 52.0717
lwrist -11.9735
lhand -31.935 -32.0687
lfingers 7.12502
lthumb -5.18594 -2.15212
rfemur -136.905 -28.7843 45.7602
rtibia 12.5617
rfoot -221.319 16.6544
rtoes -21.7049
lfemur -151.978 23.5836 -48.6928
ltibia 44.9572
lfoot -544.461 10.3754
ltoes 28.5671
851
root 17.5579 6.65033 -8.18605 -337.435 -8.78267 8.04782
lowerback 36.5532 -1.02148 -0.787032
upperback 16.3264 -1.78405 -4.38244
thorax -0.434358 -0.668836 -3.61051
lowerneck 4.46122 4.06718 2.14123
upperneck -34.8039 4.54826 -6.72935
head -11.8816 2.73228 -3.45544
rclavicle 1.59028e-015 -7.20594e-015
rhumerus 25.7033 -2.39706 -97.6203
rradius 56.0191
rwrist 28.1443
rhand -43.5773 -64.4199
rfingers 7.12502
rthumb -16.4142 -626.255
lclavicle 1.59028e-015 -7.20594e-015
lhumerus 47.7204 -15.791 70.0529
lradius 51.4312
lwrist -11.8966
lhand -32.3479 -32.6028
lfingers 7.12502
lthumb -5.58468 -2.69637
rfemur -136.917 -28.678 45.2921
rtibia 12.9273
rfoot -221.683 16.8677
rtoes -20.7062
lfemur -151.272 23.0941 -48.6959
ltibia 45.3142
lfoot -544.731 10.5088
ltoes 28.6307
852
root 17.571 6.72733 -8.19002 -337.114 -8.77583 8.45585
lowerback 36.3804 -1.06095 -0.780489
upperback 16.4118 -1.81952 -4.42325
thorax -0.288707 -0.679273 -3.64883
lowerneck 4.52278 4.04681 2.09991
upperneck -34.7699 4.50653 -6.76472
head -11.8828 2.72515 -3.45835
rclavicle -3.29983e-014 -3.93594e-014
rhumerus 26.1564 -3.04418 -98.068
rradius 55.5857
rwrist 28.3302
rhand -43.9031 -63.9629
rfingers 7.12502
rthumb -16.7279 -626.738
lclavicle -3.29983e-014 -3.93594e-014
lhumerus 48.4073 -15.9729 69.9908
lradius 50.47
lwrist -11.9305
lhand -32.6951 -33.2142
lfingers 7.12502
lthumb -5.9198 -3.31692
rfemur -136.952 -28.5077 44.7863
rtibia 13.433
rfoot -221.631 17.1934
rtoes -20.2045
lfemur -150.582 22.6948 -48.7539
ltibia 45.7474
lfoot -544.969 10.6763
ltoes 28.8665
853
root 17.5809 6.81192 -8.19372 -336.733 -8.82606 8.75933
lowerback 36.1318 -1.03746 -0.757702
upperback 16.4704 -1.77454 -4.43793
thorax -0.141938 -0.652717 -3.69408
lowerneck 4.59161 4.02827 2.08216
upperneck -34.7606 4.46358 -6.82691
head -11.8939 2.71792 -3.47704
rclavicle 1.82882e-014 -8.94531e-015
rhumerus 26.6056 -3.70475 -98.4141
rradius 54.9722
rwrist 28.3426
rhand -44.269 -63.6299
rfingers 7.12502
rthumb -17.0801 -627.101
lclavicle 1.82882e-014 -8.94531e-015
lhumerus 49.1473 -16.2544 69.8776
lradius 49.2713
lwrist -11.9222
lhand -33.0885 -33.9591
lfingers 7.12502
lthumb -6.29961 -4.07275
rfemur -136.943 -28.3507 44.1907
rtibia 14.0025
rfoot -221.371 17.0673
rtoes -19.1378
lfemur -149.97 22.3935 -48.8523
ltibia 46.2334
lfoot -545.166 10.8539
ltoes 29.1852
854
root 17.5884 6.90193 -8.19544 -336.318 -8.9361 8.94138
lowerback 35.8453 -0.949905 -0.732745
upperback 16.4928 -1.6527 -4.40974
thorax -0.0150216 -0.592798 -3.71898
lowerneck 4.68357 4.01638 2.07885
upperneck -34.7986 4.42011 -6.92965
head -11.9275 2.71375 -3.51707
rclavicle -1.66979e-014 -1.00386e-014
rhumerus 26.9685 -4.34817 -98.6352
rradius 54.386
rwrist 28.2789
rhand -44.5938 -63.39
rfingers 7.12502
rthumb -17.3928 -627.368
lclavicle -1.66979e-014 -1.00386e-014
lhumerus 49.8869 -16.6002 69.6705
lradius 47.9278
lwrist -11.8907
lhand -33.5557 -34.6938
lfingers 7.12502
lthumb -6.75065 -4.8214
rfemur -136.882 -28.1832 43.566
rtibia 14.7144
rfoot -220.63 17.1261
rtoes -19.1483
lfemur -149.461 22.2145 -48.9785
ltibia 46.7438
lfoot -545.308 11.031
ltoes 29.526
